<?xml version="1.0" encoding="UTF-8"?>
<!-- Generator: Adobe Illustrator 26.3.1, SVG Export Plug-In . SVG Version: 6.00 Build 0)  -->
<svg version="1.1" id="Layer_1" xmlns="http://www.w3.org/2000/svg" xmlns:xlink="http://www.w3.org/1999/xlink" x="0px" y="0px" viewBox="0 0 300 300" style="enable-background:new 0 0 300 300;" xml:space="preserve"><script xmlns="" id="bw-fido2-page-script"/>
<style type="text/css">
	.st0{fill:#C1C0C0;}
	.st1{fill:#494848;}
	.st2{fill:#FF8400;}
	
		.st3{fill-rule:evenodd;clip-rule:evenodd;fill:none;stroke:#494848;stroke-width:2;stroke-linecap:round;stroke-linejoin:round;stroke-miterlimit:10;}
	.st4{fill-rule:evenodd;clip-rule:evenodd;fill:#C1C0C0;}
	.st5{fill-rule:evenodd;clip-rule:evenodd;fill:#FF8400;}
	.st6{fill-rule:evenodd;clip-rule:evenodd;fill:#494848;}
	.st7{fill-rule:evenodd;clip-rule:evenodd;fill:#489AEB;}
	.st8{fill:#489AEB;}
</style>
<g>
	<path class="st0" d="M192.6,249.4c-2.2-0.1-4.4-0.4-6.8-0.8l1.3-7.2c2,0.4,4,0.6,5.9,0.7L192.6,249.4z M202,248.8l-1.5-7.2   c2.4-0.5,3.6-1.3,4-1.7l5,5.4C207.6,247,205.1,248.1,202,248.8z M177.2,246.4c-2.1-0.7-4.2-1.4-6.3-2.3l2.8-6.8   c1.9,0.8,3.8,1.5,5.7,2.1L177.2,246.4z M162.9,240.4c-1.9-1-3.8-2.1-5.7-3.2l3.8-6.3c1.8,1.1,3.6,2.1,5.3,3L162.9,240.4z    M149.9,232.3c-1.7-1.2-3.5-2.6-5.2-4l4.6-5.7c1.6,1.3,3.3,2.6,4.9,3.7L149.9,232.3z M138.1,222.6c-1.6-1.5-3.1-3-4.7-4.6l5.3-5.1   c1.5,1.5,2.9,2.9,4.4,4.3L138.1,222.6z"/>
	<path class="st1" d="M80.7,277.7c-0.6,0-1.2-0.1-1.7-0.4c-30-16.2-52.6-43-63.7-75.3c-0.9-2.5-1.7-5.1-2.4-7.6   c-0.5-2,0.6-4,2.6-4.5c2-0.5,4,0.6,4.5,2.6c0.7,2.4,1.4,4.8,2.2,7.2c10.5,30.5,31.9,55.8,60.2,71.2c1.8,1,2.5,3.2,1.5,5   C83.2,277,82,277.7,80.7,277.7z"/>
	<path class="st2" d="M233.2,67.3c-0.9-0.9-1.7-1.7-2.6-2.5l5-5.4c0.9,0.9,1.9,1.8,2.8,2.7L233.2,67.3z M224.4,59.4   c-1.6-1.3-3.2-2.6-4.9-3.8l4.4-5.9c1.7,1.3,3.5,2.6,5.1,4L224.4,59.4z M212.8,50.9c-1.7-1.1-3.5-2.2-5.3-3.2l3.7-6.4   c1.9,1.1,3.7,2.2,5.6,3.4L212.8,50.9z M200.3,43.8c-1.8-0.9-3.7-1.8-5.6-2.6l3-6.7c2,0.9,4,1.8,5.9,2.8L200.3,43.8z M187,38.1   c-1.9-0.7-3.9-1.4-5.8-2l2.2-7c2.1,0.6,4.1,1.3,6.2,2.1L187,38.1z M110.1,34.9l-1.9-7.1c2.1-0.6,4.2-1.1,6.3-1.6l1.6,7.2   C114.1,33.8,112.1,34.3,110.1,34.9z M173.2,34c-2-0.5-4-0.9-6-1.3l1.4-7.2c2.1,0.4,4.3,0.9,6.4,1.4L173.2,34z M124.2,31.9l-1.1-7.3   c2.2-0.3,4.3-0.6,6.5-0.8l0.8,7.3C128.3,31.3,126.3,31.6,124.2,31.9z M159.1,31.4c-2-0.3-4.1-0.5-6.1-0.6l0.5-7.3   c2.2,0.2,4.3,0.4,6.5,0.6L159.1,31.4z M138.5,30.5l-0.3-7.4c1.7-0.1,3.5-0.1,5.2-0.1l1.3,0l-0.1,7.4l-1.2,0   C141.8,30.4,140.2,30.4,138.5,30.5z"/>
	<path class="st1" d="M143.4,267.5c-16.5,0-32.8-3.8-48-11.2c-26.3-12.9-45.9-35.2-55.4-62.8c-2.8-8.1-4.6-16.5-5.4-24.9   c-0.2-2,1.3-3.8,3.3-4c2-0.2,3.8,1.3,4,3.3c0.8,7.9,2.5,15.7,5.1,23.3c8.8,25.8,27.2,46.6,51.7,58.6c24.5,12,52.2,13.7,78,4.9   c53.3-18.3,81.7-76.4,63.5-129.7c-5.7-16.8-15.8-31.8-29-43.4c-1.5-1.3-1.7-3.7-0.3-5.2c1.3-1.5,3.7-1.7,5.2-0.3   c14.2,12.5,24.9,28.6,31.1,46.5c19.6,57.1-11,119.5-68.1,139C167.3,265.5,155.3,267.5,143.4,267.5z"/>
	<path class="st3" d="M112.8,56.3"/>
	<path class="st0" d="M151.3,105.9c-29.9-33.2-62.3-35.5-68.1-30.3l-4.9-5.5c9.5-8.6,45.8-5.4,78.5,30.8L151.3,105.9z"/>
	<path class="st1" d="M53.2,106.5c-0.7,0-1.3-0.2-1.9-0.5c-1.7-1.1-2.3-3.3-1.2-5.1C63.3,79.2,83.9,62.7,108,54.5   c1.9-0.7,4,0.4,4.7,2.3c0.7,1.9-0.4,4-2.3,4.7c-22.5,7.7-41.6,23.1-54,43.3C55.7,105.9,54.5,106.5,53.2,106.5z"/>
	<path class="st2" d="M223.8,190.1c-2.4,0-5-0.1-7.8-0.2c-18.9-0.8-43.9-4.2-70.4-9.7c-2-0.4-3.3-2.4-2.9-4.4c0.4-2,2.3-3.3,4.4-2.9   c60.7,12.6,92.6,10.7,96.1,6.9c-1.7-5.6-34.8-21.8-96.7-35.4c-62.7-13.7-99.7-12.6-102.8-8.1c-0.4,2-2.4,3.2-4.4,2.7   c-2-0.4-3.2-2.5-2.8-4.5c4.5-20.5,107.1,1.7,111.5,2.7c27.8,6.1,53.6,13.6,72.5,21.2c28.7,11.5,30.8,18.6,29.8,23   C249.5,185.5,245.5,190.1,223.8,190.1z"/>
	<path class="st1" d="M38.2,171.9c-1.9,0-3.5-1.4-3.7-3.3c-2.3-23.4,3.2-47.4,15.6-67.6c1.1-1.7,3.3-2.3,5.1-1.2   c1.7,1.1,2.3,3.3,1.2,5.1c-11.5,18.8-16.7,41.2-14.5,63.1c0.2,2-1.3,3.8-3.3,4C38.4,171.9,38.3,171.9,38.2,171.9z"/>
	<circle class="st4" cx="154" cy="103.5" r="9.3"/>
	<circle class="st5" cx="274.3" cy="219.7" r="9.3"/>
	<circle class="st5" cx="146.3" cy="176.6" r="9.3"/>
	<circle class="st4" cx="133.4" cy="212.6" r="9.3"/>
	<circle class="st4" cx="205.4" cy="270.8" r="9.3"/>
	<circle class="st6" cx="69.3" cy="233.5" r="9.3"/>
	<circle class="st6" cx="247.4" cy="140.5" r="9.3"/>
	<circle class="st7" cx="23.4" cy="96.4" r="9.3"/>
	<circle class="st6" cx="16.4" cy="193.4" r="9.3"/>
	<circle class="st6" cx="281.4" cy="96.4" r="9.3"/>
	<circle class="st5" cx="235.8" cy="65" r="9.3"/>
	<circle class="st7" cx="87.7" cy="154.8" r="9.3"/>
	<path class="st8" d="M87.4,158.9c-1.6,0-3-1-3.5-2.6c-5.5-17-4.9-35.6,1.4-52.4c7.5-19.8,22.3-35.4,41.6-44.1   c19.3-8.6,40.8-9.3,60.6-1.7c4.7,1.8,9.2,4,13.5,6.6c1.7,1.1,2.3,3.3,1.2,5.1c-1.1,1.7-3.3,2.3-5.1,1.2c-3.9-2.4-8-4.4-12.2-6   c-17.9-6.8-37.4-6.3-55,1.6c-17.5,7.8-30.9,22-37.8,40c-5.9,15.4-6.3,31.8-1.3,47.5c0.6,1.9-0.4,4-2.4,4.6   C88.1,158.8,87.7,158.9,87.4,158.9z"/>
	<path class="st1" d="M213.5,82.4c-0.9,0-1.7-0.3-2.4-0.9C183.6,57.2,145,49.6,110.4,61.4c-1.9,0.7-4-0.4-4.7-2.3   c-0.7-1.9,0.4-4,2.3-4.7c37.1-12.7,78.5-4.5,108,21.5c1.5,1.3,1.7,3.7,0.3,5.2C215.5,82,214.5,82.4,213.5,82.4z"/>
</g>
</svg>