<?xml version="1.0" standalone="no"?>
<!DOCTYPE svg PUBLIC "-//W3C//DTD SVG 20010904//EN"
 "http://www.w3.org/TR/2001/REC-SVG-20010904/DTD/svg10.dtd">
<svg version="1.0" xmlns="http://www.w3.org/2000/svg"
 width="700.000000pt" height="700.000000pt" viewBox="0 0 700.000000 700.000000"
 preserveAspectRatio="xMidYMid meet">
<metadata>
Created by potrace 1.14, written by Peter Selinger 2001-2017
</metadata>
<g transform="translate(0.000000,700.000000) scale(0.100000,-0.100000)"
fill="#000000" stroke="none">
<path d="M3231 6460 c-3 -3 -5 -23 -4 -45 1 -22 2 -59 2 -83 l1 -43 72 3 72 3
1 83 c2 69 -1 82 -14 83 -56 4 -124 3 -130 -1z"/>
<path d="M3009 6446 c-2 -2 -31 -7 -64 -11 -72 -8 -76 -10 -70 -38 9 -39 14
-71 14 -106 l1 -33 58 5 c31 4 65 6 75 7 17 0 18 7 12 78 -7 73 -16 108 -26
98z"/>
<path d="M3579 6424 c0 -16 -2 -55 -5 -86 -5 -51 -3 -58 13 -59 123 -6 128 -5
130 21 1 14 5 51 8 83 7 51 6 57 -11 57 -11 1 -45 3 -76 7 l-58 5 -1 -28z"/>
<path d="M3924 6363 c-3 -21 -10 -56 -15 -78 -4 -22 -5 -43 -1 -46 13 -11 126
-29 133 -22 12 15 40 146 32 153 -8 8 -103 30 -128 30 -8 0 -17 -15 -21 -37z"/>
<path d="M2595 6371 c-34 -10 -61 -24 -62 -32 -1 -8 5 -43 15 -79 16 -59 20
-65 42 -63 31 2 109 19 115 25 8 8 -33 168 -43 167 -4 0 -34 -8 -67 -18z"/>
<path d="M4275 6309 c-9 -25 -45 -153 -42 -153 1 -1 30 -11 64 -23 35 -12 65
-18 68 -13 15 25 55 143 50 150 -3 5 -29 16 -58 26 -28 9 -58 19 -64 21 -7 3
-15 -1 -18 -8z"/>
<path d="M4580 6124 c-16 -37 -30 -72 -30 -78 0 -10 119 -70 125 -64 2 2 19
36 39 75 l36 73 -60 30 c-33 16 -64 30 -70 30 -5 0 -23 -30 -40 -66z"/>
<path d="M4886 5963 l-44 -76 61 -37 62 -38 42 64 c24 35 43 69 43 76 -1 7
-28 30 -60 50 l-60 37 -44 -76z"/>
<path d="M3198 5865 c-2 -1 -46 -6 -98 -10 -52 -3 -97 -8 -100 -10 -3 -1 -27
-6 -55 -9 -27 -4 -68 -11 -90 -16 -22 -5 -51 -11 -65 -13 -184 -34 -483 -150
-695 -269 -84 -48 -293 -186 -321 -212 -6 -6 -29 -25 -50 -43 -242 -197 -453
-450 -606 -728 -51 -93 -128 -250 -128 -262 0 -3 -7 -19 -15 -36 -21 -47 -80
-230 -104 -322 -28 -110 -51 -242 -67 -385 -15 -140 -10 -444 10 -555 3 -16 8
-48 11 -70 6 -43 23 -135 32 -175 4 -14 8 -32 9 -41 2 -9 20 -69 39 -135 97
-318 258 -624 462 -872 45 -55 51 -66 43 -88 -23 -60 -4 -147 42 -200 56 -64
131 -90 211 -72 l45 9 101 -74 c402 -300 849 -469 1356 -513 57 -4 311 -4 365
1 25 3 70 7 100 10 30 2 80 9 110 15 30 6 71 13 90 15 115 15 391 99 545 167
763 334 1315 1022 1479 1841 13 67 27 142 30 167 3 25 9 70 12 100 4 30 8 148
8 261 l1 206 32 36 c54 61 67 149 34 222 -22 49 -69 97 -110 115 -20 8 -33 23
-39 44 -6 17 -18 58 -27 91 -47 159 -151 394 -249 560 -43 73 -165 252 -202
295 -12 14 -43 50 -69 80 -85 99 -248 255 -345 330 -25 19 -47 37 -50 40 -16
19 -265 177 -333 211 -314 158 -571 236 -942 285 -50 6 -401 15 -407 9z m-103
-206 c-163 -61 -324 -145 -447 -234 l-57 -41 -118 28 c-65 16 -129 32 -143 35
-22 5 -18 9 38 34 128 59 345 134 442 153 14 3 59 12 100 20 41 8 100 17 130
21 30 3 55 7 56 8 1 1 20 3 41 4 33 1 28 -2 -42 -28z m765 -73 c41 -3 85 -8
96 -10 12 -2 39 -7 60 -10 211 -33 480 -149 689 -295 438 -308 752 -732 916
-1239 l37 -117 -33 -35 c-71 -75 -88 -167 -46 -253 25 -52 42 -69 102 -100
l44 -24 0 -194 c0 -237 -4 -301 -19 -292 -6 4 -45 29 -85 55 -252 164 -809
375 -1456 552 -176 48 -274 73 -520 131 -165 39 -449 99 -570 120 -16 2 -41 7
-55 10 -14 3 -63 12 -110 20 -47 8 -96 17 -110 20 -13 2 -42 7 -65 10 -22 4
-53 8 -69 11 -74 12 -296 45 -336 50 -25 3 -56 7 -70 9 -14 2 -52 7 -84 11
-33 3 -67 8 -75 9 -9 2 -26 4 -38 4 -19 1 -21 5 -17 44 41 399 214 762 493
1035 64 62 79 72 101 67 78 -19 393 -200 509 -291 50 -40 168 -141 204 -175
36 -33 37 -37 29 -75 -37 -175 145 -320 305 -243 151 73 163 282 21 376 -35
24 -52 28 -120 29 -73 2 -81 4 -107 31 -132 135 -397 326 -594 428 -53 28 -97
52 -97 55 0 16 290 167 308 161 1 -1 15 5 31 14 40 20 235 74 296 81 28 4 53
8 57 10 4 3 49 7 100 11 51 3 94 6 95 7 3 2 106 -3 183 -8z m-1580 -311 c36
-5 67 -9 70 -10 3 -1 22 -5 42 -9 l38 -8 -76 -82 c-165 -179 -296 -398 -379
-637 -50 -143 -104 -403 -96 -462 2 -18 -5 -18 -141 -11 -229 12 -459 8 -554
-10 -105 -20 -106 -20 -99 5 16 55 100 259 133 324 167 328 408 619 684 827
109 82 190 98 378 73z m-452 -1398 c18 -3 35 -6 36 -8 2 -2 7 -40 10 -84 3
-44 8 -89 10 -101 2 -11 7 -46 11 -77 7 -51 5 -61 -13 -80 -87 -93 -60 -256
53 -322 112 -66 249 -26 305 89 56 116 -5 262 -125 297 -31 9 -47 20 -50 34
-9 38 -14 75 -21 155 l-7 81 24 -5 c13 -3 51 -8 84 -11 66 -5 132 -13 183 -20
17 -3 49 -7 70 -10 20 -3 69 -11 107 -17 39 -6 81 -12 95 -13 39 -5 101 -15
150 -25 25 -5 99 -18 165 -30 66 -11 134 -23 150 -26 60 -11 362 -75 425 -90
36 -9 76 -18 90 -20 160 -29 855 -221 1085 -299 248 -85 347 -122 505 -188
270 -112 500 -251 500 -302 0 -13 -79 -38 -160 -50 -81 -13 -578 -14 -670 -1
-19 2 -72 7 -117 11 -44 3 -89 7 -100 9 -10 2 -52 7 -93 11 -41 4 -83 9 -94
11 -10 2 -44 6 -75 10 -31 3 -65 8 -76 10 -10 2 -37 6 -60 9 -22 3 -58 8 -80
12 -22 3 -49 7 -60 8 -11 2 -47 8 -80 14 -33 6 -78 13 -100 17 -22 3 -87 15
-145 26 -58 11 -111 21 -118 22 -8 1 -22 20 -31 42 -96 212 -411 145 -413 -88
0 -88 64 -177 148 -205 73 -25 193 8 233 65 14 21 3 21 181 -13 21 -4 118 -21
229 -40 13 -2 45 -7 70 -11 25 -4 55 -8 65 -10 11 -2 56 -8 100 -14 45 -6 92
-13 106 -15 14 -2 68 -8 120 -15 52 -6 113 -13 135 -15 22 -3 69 -8 105 -11
36 -3 83 -7 105 -10 195 -22 693 -21 758 1 29 10 67 13 67 5 0 -5 -20 -61 -44
-124 -48 -123 -113 -257 -179 -371 -36 -62 -152 -232 -166 -245 -4 -3 -18 -21
-33 -41 -105 -141 -368 -382 -465 -426 -29 -14 -53 -30 -53 -36 0 -7 -11 -19
-23 -28 -38 -26 -144 -89 -152 -89 -4 0 -5 27 -3 60 2 48 0 60 -12 61 -8 0
-39 4 -68 8 -29 4 -55 5 -57 2 -6 -11 -19 -94 -19 -131 -1 -33 1 -35 39 -40
l40 -6 -79 -37 c-43 -20 -84 -37 -90 -37 -7 0 -16 -4 -22 -9 -5 -5 -65 -27
-134 -49 -163 -53 -164 -53 -245 -68 -16 -2 -46 -9 -65 -14 -19 -5 -62 -12
-95 -16 -33 -3 -69 -9 -80 -11 -50 -13 -454 -11 -550 2 -294 41 -534 114 -785
240 -123 61 -152 79 -280 166 -129 89 -183 135 -174 151 4 5 6 29 6 53 -3 131
-110 221 -251 213 -43 -3 -46 -1 -94 57 -74 90 -188 267 -249 386 -104 202
-204 494 -233 679 -3 19 -8 46 -10 60 -24 126 -36 417 -21 547 3 26 8 75 11
108 4 33 13 92 21 130 8 39 14 73 14 77 0 13 48 40 87 49 21 5 70 12 108 15
39 4 72 8 74 10 5 5 495 -4 539 -9z"/>
<path d="M3046 2245 c-120 -41 -180 -174 -132 -290 36 -86 105 -128 211 -129
39 -1 76 -5 84 -10 20 -13 133 105 120 125 -5 8 -6 41 -3 74 5 50 2 69 -17
110 -48 104 -161 155 -263 120z"/>
<path d="M3427 1738 l-48 -62 28 -26 c15 -14 42 -36 60 -48 l32 -22 45 64 c25
35 46 68 46 74 0 11 -94 82 -108 82 -4 -1 -29 -29 -55 -62z"/>
<path d="M3712 1538 c-33 -55 -40 -73 -30 -79 80 -49 118 -68 121 -61 59 101
76 141 64 149 -14 11 -104 63 -109 63 -2 0 -23 -32 -46 -72z"/>
<path d="M4041 1439 c-5 -13 -19 -48 -30 -78 -12 -29 -20 -55 -18 -57 2 -2 33
-15 70 -29 62 -23 67 -23 76 -7 9 19 41 125 41 139 0 5 -24 17 -52 28 -29 10
-59 20 -65 23 -7 2 -17 -7 -22 -19z"/>
<path d="M5176 5775 c-26 -35 -47 -67 -47 -70 0 -9 97 -85 107 -84 5 0 31 28
58 61 l50 62 -45 38 c-73 65 -71 65 -123 -7z"/>
<path d="M5426 5686 c-143 -53 -185 -238 -80 -350 88 -94 235 -91 318 6 115
133 32 338 -142 353 -37 4 -71 0 -96 -9z"/>
<path d="M477 4955 c-154 -53 -197 -250 -79 -361 118 -111 320 -52 359 106 40
160 -124 309 -280 255z"/>
<path d="M6512 4960 c-87 -20 -162 -117 -162 -209 1 -124 106 -222 228 -215
131 9 221 120 200 248 -19 124 -141 205 -266 176z"/>
<path d="M321 2694 c-159 -47 -207 -256 -84 -364 37 -32 61 -46 101 -55 18 -3
32 -12 32 -18 0 -40 157 -384 243 -532 70 -121 253 -386 286 -415 3 -3 31 -34
61 -70 222 -266 567 -543 880 -707 38 -20 67 -16 102 16 30 27 32 31 23 67 -8
31 -21 46 -65 76 -30 20 -58 37 -63 37 -29 3 -351 233 -462 332 -240 214 -410
420 -612 744 -57 91 -233 475 -233 507 0 4 13 28 30 55 54 87 50 182 -11 256
-56 69 -144 96 -228 71z"/>
<path d="M6322 2077 c-18 -7 -50 -29 -71 -50 -125 -121 -61 -333 110 -365 129
-24 246 70 253 202 9 154 -145 266 -292 213z"/>
<path d="M4725 889 c-83 -23 -148 -117 -147 -211 1 -198 242 -286 376 -138 94
104 62 270 -64 335 -39 20 -119 27 -165 14z"/>
</g>
</svg>
